<svg xmlns="http://www.w3.org/2000/svg" width="433" height="577" viewBox="0 0 433 577">
<g>
<path d="M 210.09 342.03 C210.53,342.32 210.51,343.18 210.03,343.95 C209.38,345.00 208.80,344.50 207.70,341.92 C194.79,311.98 192.60,304.62 192.67,291.50 C192.73,281.19 194.26,274.33 196.49,274.33 C197.32,274.33 198.00,274.71 198.00,275.17 C198.00,276.49 201.78,276.13 202.37,274.75 C202.94,273.42 202.67,275.49 200.87,286.12 C200.03,291.07 200.04,294.48 200.91,299.62 C202.20,307.26 205.70,318.70 206.98,319.49 C207.44,319.77 209.17,317.19 210.84,313.75 C215.03,305.12 218.34,301.64 221.77,302.30 C224.05,302.73 225.68,301.62 232.94,294.65 C237.62,290.17 241.97,285.83 242.61,285.00 C243.26,284.17 245.07,282.14 246.64,280.47 C248.21,278.81 251.07,274.66 253.00,271.25 C257.09,264.02 259.02,262.77 255.33,269.75 C250.52,278.85 241.61,289.27 231.69,297.40 C225.76,302.25 218.49,312.96 215.49,321.22 C213.26,327.39 213.16,327.50 209.36,327.64 C207.24,327.72 205.27,327.89 205.00,328.01 C204.73,328.14 204.19,328.19 203.81,328.14 C202.60,327.97 208.48,340.98 210.09,342.03 ZM 176.00 368.28 C177.33,368.78 177.33,368.85 176.00,368.88 C173.68,368.95 165.26,365.69 157.03,361.53 C143.58,354.73 135.25,348.63 121.47,335.50 C109.70,324.28 96.39,304.05 90.53,288.48 C87.67,280.89 87.62,280.65 89.00,281.50 C89.55,281.84 90.00,282.82 90.00,283.68 C90.00,285.32 100.73,308.14 101.90,309.00 C102.28,309.27 103.91,311.63 105.53,314.22 C108.06,318.28 108.85,318.88 111.11,318.48 C114.21,317.93 116.82,319.85 128.80,331.42 C137.74,340.05 146.79,346.98 157.20,353.18 C165.54,358.14 166.78,359.52 165.22,362.02 C164.18,363.68 164.61,364.08 169.28,365.80 C172.15,366.86 175.18,367.98 176.00,368.28 ZM 340.55 190.35 C340.92,191.81 340.94,193.00 340.61,193.00 C340.27,193.00 340.00,192.49 340.00,191.87 C340.00,188.85 331.99,171.31 326.23,161.70 C319.20,149.99 304.67,133.73 293.59,125.16 C276.88,112.26 254.16,102.65 234.03,99.97 C224.56,98.71 224.00,98.51 224.00,96.37 C224.00,95.06 224.19,95.05 225.43,96.28 C226.21,97.07 229.80,98.01 233.40,98.38 C239.23,98.98 245.90,100.60 257.00,104.12 C266.80,107.23 283.34,115.77 292.15,122.28 C293.62,123.35 295.27,123.95 295.84,123.60 C296.40,123.25 297.19,123.49 297.59,124.14 C298.07,124.92 297.87,125.04 297.00,124.50 C296.13,123.96 295.93,124.08 296.40,124.85 C296.80,125.48 297.79,126.00 298.62,126.00 C299.49,126.00 299.85,126.52 299.48,127.25 C299.14,127.94 299.56,127.63 300.43,126.56 C301.29,125.49 302.00,125.15 302.00,125.81 C302.00,126.46 302.48,127.00 303.06,127.00 C303.64,127.00 303.79,126.46 303.38,125.80 C302.97,125.15 304.12,125.71 305.92,127.05 C307.73,128.40 309.94,129.95 310.84,130.50 C311.74,131.05 313.08,132.31 313.82,133.29 C314.56,134.27 315.95,135.85 316.91,136.79 C319.44,139.27 321.32,144.59 320.63,147.32 C320.22,148.97 320.99,151.14 323.22,154.59 C330.68,166.11 333.14,170.64 336.42,178.93 C338.33,183.75 340.19,188.89 340.55,190.35 ZM 180.75 467.91 C160.29,474.43 142.33,468.88 134.63,453.66 C132.08,448.63 129.63,437.53 130.67,435.76 C131.42,434.48 139.20,439.05 139.73,441.08 C140.01,442.14 140.57,443.00 140.99,443.00 C141.40,443.00 142.04,444.84 142.40,447.09 C143.32,452.84 149.10,461.41 154.22,464.62 C156.57,466.09 158.65,467.68 158.83,468.15 C159.22,469.14 167.79,469.26 173.23,468.36 C175.28,468.02 176.75,467.40 176.49,466.98 C176.22,466.55 176.68,465.95 177.51,465.64 C178.47,465.27 179.05,463.55 179.15,460.78 C179.25,457.89 179.43,457.38 179.71,459.20 C179.95,460.76 180.95,462.17 182.06,462.52 C183.13,462.86 184.00,463.51 184.00,463.97 C184.00,464.44 184.90,464.58 186.00,464.29 C187.10,464.00 188.00,464.18 188.00,464.69 C188.00,465.19 184.74,466.64 180.75,467.91 ZM 242.35 211.23 C240.98,215.49 239.37,219.27 238.77,219.64 C238.06,220.08 237.88,219.56 238.25,218.16 C238.56,216.97 238.46,216.00 238.03,216.00 C237.22,216.00 237.31,212.19 238.54,193.50 C239.17,183.91 238.98,181.34 237.04,173.50 C235.81,168.55 233.50,162.06 231.91,159.08 C230.31,156.10 229.19,153.48 229.41,153.26 C229.63,153.04 231.26,155.58 233.03,158.91 C234.81,162.24 236.55,164.78 236.92,164.55 C237.28,164.33 239.00,164.83 240.74,165.67 C243.41,166.96 244.05,168.00 244.89,172.35 C247.77,187.37 247.19,196.22 242.35,211.23 ZM 188.00 284.93 C188.00,289.37 186.47,289.46 183.05,285.21 C176.54,277.11 171.89,264.79 170.42,251.75 C169.87,246.93 170.02,246.00 171.33,246.00 C174.67,246.00 177.60,250.35 178.81,257.11 C179.88,263.06 184.36,275.74 186.99,280.24 C187.54,281.19 188.00,283.30 188.00,284.93 ZM 352.02 257.74 C350.71,263.53 349.00,265.62 349.00,261.43 C349.00,259.93 348.06,257.92 346.88,256.90 C345.24,255.47 344.93,254.45 345.49,252.28 C345.89,250.75 346.23,241.85 346.24,232.50 C346.25,222.84 346.58,216.80 347.01,218.50 C347.42,220.15 347.82,221.14 347.88,220.69 C347.95,220.25 349.40,220.70 351.11,221.69 L 354.23 223.50 L 353.72 238.00 C353.44,245.98 352.67,254.86 352.02,257.74 ZM 283.58 466.43 L 282.91 470.00 L 258.29 470.00 C244.75,470.00 233.96,469.71 234.32,469.35 C234.67,468.99 235.96,468.21 237.17,467.60 C238.38,467.00 239.74,465.08 240.19,463.34 C240.96,460.36 241.17,460.24 243.83,461.24 C245.38,461.83 247.21,463.59 247.91,465.15 L 249.17 468.00 L 259.62 468.00 C270.51,468.00 274.69,466.96 279.73,463.00 C283.04,460.39 284.47,461.67 283.58,466.43 ZM 375.37 468.75 C375.04,469.99 374.40,471.00 373.94,471.00 C373.10,471.00 366.68,463.01 359.50,453.02 C357.30,449.96 352.10,443.19 347.94,437.98 C335.09,421.89 329.81,414.85 330.24,414.43 C330.69,413.98 337.16,421.95 346.33,434.25 C349.51,438.51 352.54,442.00 353.06,442.00 C353.58,442.00 353.89,442.42 353.75,442.93 C353.61,443.44 355.90,446.61 358.84,449.97 C362.85,454.55 364.65,455.93 366.05,455.48 C367.07,455.16 369.73,455.44 371.96,456.10 C375.92,457.29 376.00,457.41 375.99,461.91 C375.98,464.43 375.70,467.51 375.37,468.75 ZM 336.00 469.24 C336.00,469.66 332.55,470.00 328.33,470.00 C320.63,470.00 320.05,469.66 324.23,467.57 C326.39,466.50 326.51,465.84 326.74,453.47 C327.02,438.70 327.45,436.00 329.49,436.00 C330.69,436.00 331.00,438.70 331.22,451.25 C331.49,465.98 331.58,466.53 333.75,467.49 C334.99,468.03 336.00,468.82 336.00,469.24 ZM 82.00 443.08 C82.00,444.59 81.33,444.15 79.60,441.51 C77.34,438.06 70.90,435.01 65.79,434.96 L 61.50 434.92 L 64.76 433.50 C66.56,432.72 69.59,431.79 71.50,431.43 C73.59,431.04 74.72,430.36 74.33,429.72 C73.92,429.07 74.28,428.89 75.26,429.27 C76.19,429.63 77.87,428.92 79.36,427.54 C80.74,426.26 82.11,425.44 82.38,425.72 C82.66,426.00 83.79,424.74 84.90,422.93 C86.54,420.22 86.87,420.02 86.74,421.81 C86.65,423.02 86.25,424.00 85.85,424.00 C85.46,424.00 84.88,424.81 84.56,425.80 C84.25,426.79 82.24,428.71 80.10,430.05 C75.67,432.84 75.56,434.49 79.45,439.13 C80.85,440.79 82.00,442.57 82.00,443.08 ZM 236.09 374.94 C225.33,376.30 225.05,376.29 224.36,374.50 C223.39,371.97 224.67,370.32 228.16,369.61 C230.90,369.05 231.86,369.34 233.51,371.24 C235.46,373.49 235.73,373.52 242.51,372.36 C246.36,371.70 251.47,370.45 253.88,369.58 C256.28,368.71 258.98,368.04 259.88,368.08 C261.22,368.14 261.24,368.24 260.00,368.65 C259.17,368.92 257.60,369.50 256.50,369.94 C250.58,372.27 243.59,373.99 236.09,374.94 ZM 282.12 412.00 C282.00,413.93 280.00,414.95 280.00,413.08 C280.00,412.58 278.48,411.23 276.63,410.08 C273.70,408.27 271.68,408.00 261.13,408.00 C253.52,408.00 249.00,407.62 249.00,406.98 C249.00,406.31 254.81,406.05 265.75,406.23 C280.99,406.48 282.49,406.66 282.38,408.25 C282.31,409.21 282.19,410.90 282.12,412.00 ZM 373.93 430.75 C373.89,430.06 373.47,430.40 373.00,431.50 C372.45,432.78 372.11,429.37 372.05,422.00 C371.97,409.96 371.74,409.03 368.50,407.19 C366.82,406.24 366.77,406.06 368.19,406.03 C370.34,405.99 373.00,409.73 373.00,412.79 C373.00,414.09 373.67,415.82 374.50,416.64 C376.24,418.38 376.68,432.00 375.00,432.00 C374.45,432.00 373.97,431.44 373.93,430.75 ZM 271.49 439.34 C272.42,440.77 273.03,442.39 272.84,442.95 C272.65,443.50 271.76,442.66 270.85,441.07 C269.33,438.42 268.60,438.13 261.60,437.48 C257.42,437.09 253.10,437.00 252.00,437.29 C250.90,437.58 250.00,437.46 250.00,437.03 C250.00,436.60 253.71,435.99 258.25,435.68 C262.79,435.36 267.74,434.80 269.25,434.44 C271.61,433.86 272.00,434.07 272.00,435.94 C272.00,437.27 271.57,437.85 270.90,437.44 C270.29,437.06 270.56,437.92 271.49,439.34 ZM 85.47 221.68 C85.99,224.49 85.74,225.69 84.32,227.03 C83.32,227.99 81.94,228.56 81.25,228.30 C79.82,227.77 79.52,221.00 80.93,221.00 C81.44,221.00 82.52,220.34 83.32,219.53 C84.61,218.24 84.87,218.51 85.47,221.68 ZM 379.44 407.47 C376.94,409.36 376.00,409.37 376.00,407.50 C376.00,406.54 376.97,406.00 378.69,406.00 C381.27,406.00 381.30,406.06 379.44,407.47 ZM 212.29 331.00 C211.57,333.75 211.00,333.51 211.00,330.44 C211.00,329.03 211.41,328.13 211.91,328.44 C212.40,328.75 212.58,329.90 212.29,331.00 ZM 110.98 321.48 C112.76,323.63 113.25,323.37 111.80,321.05 C111.12,319.97 110.38,319.28 110.15,319.52 C109.91,319.76 110.28,320.64 110.98,321.48 Z" fill="rgb(198,182,142)"/>
<path d="M 373.93 430.75 C373.97,431.44 374.45,432.00 375.00,432.00 C375.43,432.00 375.72,431.10 375.89,429.74 L 375.93 438.20 C375.98,445.92 375.94,453.23 375.84,458.74 C375.55,457.22 374.65,456.91 371.96,456.10 C369.73,455.44 367.07,455.16 366.05,455.48 C364.65,455.93 362.85,454.55 358.84,449.97 C355.90,446.61 353.61,443.44 353.75,442.93 C353.89,442.42 353.58,442.00 353.06,442.00 C352.54,442.00 349.51,438.51 346.33,434.25 C337.16,421.95 330.69,413.98 330.24,414.43 C329.81,414.85 335.09,421.89 347.94,437.98 C352.10,443.19 357.30,449.96 359.50,453.02 C360.58,454.52 361.64,455.98 362.67,457.37 C354.77,447.14 342.29,431.13 336.25,423.50 L 331.50 417.50 L 331.23 441.38 C331.20,443.97 331.18,446.31 331.17,448.43 C330.94,438.28 330.59,436.00 329.49,436.00 C327.45,436.00 327.02,438.70 326.74,453.47 C326.54,464.52 326.42,466.22 324.86,467.23 C326.50,466.13 326.55,463.47 327.00,438.58 C327.46,412.78 327.37,410.57 325.70,408.65 C323.96,406.64 323.97,406.56 326.10,405.77 C329.14,404.64 331.75,405.68 333.78,408.82 C334.72,410.29 339.10,415.15 343.50,419.63 C347.90,424.11 353.30,430.33 355.50,433.46 C364.35,446.06 371.11,453.38 372.46,451.83 C372.62,451.65 372.51,442.30 372.23,431.06 C371.74,411.38 371.63,410.54 369.40,408.31 L 367.99 406.90 C368.14,406.99 368.31,407.09 368.50,407.19 C371.74,409.03 371.97,409.96 372.05,422.00 C372.11,429.37 372.45,432.78 373.00,431.50 C373.47,430.40 373.89,430.06 373.93,430.75 ZM 264.49 467.91 C263.02,467.97 261.41,468.00 259.62,468.00 L 249.17 468.00 L 247.91 465.15 C247.21,463.59 245.38,461.83 243.83,461.24 C241.17,460.24 240.96,460.36 240.19,463.34 C240.05,463.90 239.81,464.47 239.51,465.02 L 239.76 437.33 C240.03,408.41 240.04,408.20 242.26,406.82 C244.06,405.70 248.27,405.53 263.50,405.96 L 282.50 406.50 L 282.38 408.03 C282.31,406.64 280.25,406.46 265.75,406.23 C254.81,406.05 249.00,406.31 249.00,406.98 C249.00,407.62 253.52,408.00 261.13,408.00 L 250.00 408.00 L 250.00 416.57 C250.00,427.10 247.61,432.58 244.24,429.79 C243.27,428.98 242.61,428.99 241.78,429.82 C240.11,431.49 242.38,435.81 245.32,436.54 C247.37,437.06 247.87,438.09 248.89,443.82 C249.54,447.49 250.16,454.33 250.28,459.00 L 250.50 467.50 L 259.00 467.80 C261.10,467.88 262.91,467.92 264.49,467.91 ZM 84.07 254.00 C83.01,254.00 81.96,254.79 81.74,255.75 C80.85,259.63 79.56,244.64 79.66,231.50 C79.76,218.51 80.72,209.85 83.06,200.88 C83.81,198.01 84.47,197.29 86.25,197.38 C87.49,197.45 88.75,197.84 89.06,198.25 C89.37,198.67 90.44,196.28 91.43,192.96 C94.49,182.75 94.16,186.94 90.79,201.08 C87.78,213.69 87.59,215.65 87.54,233.65 C87.52,244.19 87.17,252.29 86.77,251.65 C86.29,250.91 86.03,251.12 86.02,252.25 C86.01,253.31 85.24,254.00 84.07,254.00 ZM 82.00 443.08 C82.00,442.57 80.85,440.79 79.45,439.13 C75.56,434.49 75.67,432.84 80.10,430.05 C80.75,429.64 81.39,429.18 81.97,428.71 C80.83,429.99 80.04,431.11 80.05,431.50 C80.06,432.05 81.50,433.40 83.25,434.50 C84.99,435.60 87.78,438.45 89.46,440.84 C92.02,444.50 92.49,446.10 92.47,451.02 C92.44,455.10 91.91,457.44 90.72,458.76 C89.77,459.80 89.00,461.08 89.00,461.61 C89.00,462.78 85.33,466.00 83.99,466.00 C83.44,466.00 83.00,466.39 83.00,466.87 C83.00,467.35 80.38,468.47 77.18,469.37 C73.99,470.27 69.82,470.95 67.93,470.90 C61.97,470.71 55.25,468.09 52.55,464.88 C49.47,461.22 49.40,460.39 52.03,458.98 C53.73,458.07 54.42,458.33 56.28,460.58 C60.71,465.92 63.13,467.80 66.35,468.41 C71.16,469.31 76.21,468.06 78.60,465.39 C79.76,464.09 80.92,463.25 81.18,463.52 C81.83,464.16 82.00,462.84 82.43,454.00 C82.75,447.43 82.49,446.04 80.40,442.78 C79.16,440.86 77.67,439.31 75.87,438.11 C77.47,439.12 78.80,440.29 79.60,441.51 C81.33,444.15 82.00,444.59 82.00,443.08 ZM 337.98 182.95 C338.09,183.25 338.20,183.54 338.30,183.84 C337.72,182.27 337.07,180.58 336.42,178.93 C333.14,170.64 330.68,166.11 323.22,154.59 C320.99,151.14 320.22,148.97 320.63,147.32 C321.32,144.59 319.44,139.27 316.91,136.79 C315.95,135.85 314.56,134.27 313.82,133.29 C313.08,132.31 311.74,131.05 310.84,130.50 C309.94,129.95 307.73,128.40 305.92,127.05 C304.12,125.71 302.97,125.15 303.38,125.80 C303.79,126.46 303.64,127.00 303.06,127.00 C302.48,127.00 302.00,126.46 302.00,125.81 C302.00,125.15 301.29,125.49 300.43,126.56 C299.56,127.63 299.14,127.94 299.48,127.25 C299.85,126.52 299.49,126.00 298.62,126.00 C297.79,126.00 296.80,125.48 296.40,124.85 C295.93,124.08 296.13,123.96 297.00,124.50 C297.87,125.04 298.07,124.92 297.59,124.14 C297.19,123.49 296.40,123.25 295.84,123.60 C295.27,123.95 293.62,123.35 292.15,122.28 C286.05,117.77 276.24,112.29 267.54,108.32 C267.86,108.46 268.18,108.60 268.50,108.73 C272.90,110.66 278.52,112.36 281.00,112.52 C283.48,112.67 286.56,113.05 287.85,113.36 C290.76,114.06 299.08,119.33 301.51,122.01 C302.50,123.11 303.86,124.00 304.53,124.00 C306.52,124.00 318.46,137.71 326.17,148.85 C331.41,156.42 333.71,162.70 331.89,164.50 C331.21,165.17 331.09,164.84 331.52,163.50 C332.06,161.78 332.00,161.73 331.07,163.16 C330.25,164.44 330.57,165.96 332.45,169.71 C333.80,172.39 336.29,178.35 337.98,182.95 ZM 148.67 412.52 C139.87,420.71 138.47,441.70 145.45,454.76 C143.89,452.10 142.76,449.37 142.40,447.09 C142.04,444.84 141.40,443.00 140.99,443.00 C140.57,443.00 140.01,442.14 139.73,441.08 C139.20,439.05 131.42,434.48 130.67,435.76 C130.52,436.01 130.44,436.46 130.43,437.05 C130.05,430.84 131.23,427.21 134.16,425.04 C135.85,423.79 137.83,423.11 138.74,423.45 C139.62,423.79 140.71,423.49 141.15,422.78 C142.33,420.92 142.18,419.96 140.75,420.25 C140.04,420.39 139.36,419.27 139.17,417.63 C138.55,412.22 149.63,404.12 156.12,405.24 C158.35,405.62 158.38,405.70 156.54,406.51 C154.55,407.39 152.51,408.94 148.67,412.52 ZM 84.31 426.31 C84.43,426.12 84.52,425.95 84.56,425.80 C84.88,424.81 85.46,424.00 85.85,424.00 C86.25,424.00 86.65,423.02 86.74,421.81 C86.87,420.02 86.54,420.22 84.90,422.93 C83.79,424.74 82.66,426.00 82.38,425.72 C82.11,425.44 80.74,426.26 79.36,427.54 C77.87,428.92 76.19,429.63 75.26,429.27 C74.28,428.89 73.92,429.07 74.33,429.72 C74.72,430.36 73.59,431.04 71.50,431.43 C70.68,431.59 69.66,431.85 68.61,432.15 C74.06,429.79 77.28,425.58 78.04,419.77 C78.42,416.87 78.34,414.35 77.86,414.16 C77.38,413.98 77.20,413.48 77.46,413.06 C78.55,411.30 73.15,407.92 68.40,407.40 C63.63,406.87 63.37,406.98 58.78,411.52 C53.52,416.72 51.27,417.14 53.58,412.50 C56.20,407.25 59.39,405.58 69.17,404.34 C75.53,403.53 78.31,404.41 79.76,407.71 C81.50,411.67 85.63,417.04 86.37,416.29 C86.72,415.95 87.00,417.48 87.00,419.69 C87.00,422.64 86.48,424.05 84.31,426.31 ZM 180.75 467.91 C184.74,466.64 188.00,465.19 188.00,464.69 C188.00,464.18 187.10,464.00 186.00,464.29 C184.90,464.58 184.00,464.44 184.00,463.97 C184.00,463.51 183.13,462.86 182.06,462.52 C180.95,462.17 179.95,460.76 179.71,459.20 C179.43,457.38 179.25,457.89 179.15,460.78 C179.14,461.07 179.12,461.34 179.10,461.60 L 178.84 453.42 C178.64,447.36 178.87,443.42 179.42,443.76 C179.94,444.08 180.03,443.53 179.63,442.47 C178.94,440.68 178.99,440.68 181.00,442.50 C182.74,444.08 182.98,444.11 182.45,442.73 C181.95,441.44 182.30,441.17 184.04,441.51 C185.26,441.74 187.14,441.46 188.21,440.89 C190.82,439.49 191.27,440.15 190.00,443.50 C189.42,445.03 188.66,445.99 188.31,445.65 C187.97,445.30 187.13,445.48 186.45,446.05 C185.02,447.23 185.64,450.75 187.70,453.14 C188.63,454.23 189.01,456.57 188.81,460.06 L 188.50 465.34 L 181.50 467.69 C180.69,467.97 179.83,468.22 178.94,468.46 C179.54,468.29 180.14,468.11 180.75,467.91 ZM 353.77 223.24 L 351.11 221.69 C349.40,220.70 347.95,220.25 347.88,220.69 C347.82,221.14 347.42,220.15 347.01,218.50 C346.58,216.80 346.25,222.84 346.24,232.50 C346.23,241.85 345.89,250.75 345.49,252.28 C344.93,254.45 345.24,255.47 346.88,256.90 C348.06,257.92 349.00,259.93 349.00,261.43 C349.00,264.97 350.22,264.03 351.39,260.17 C350.99,262.25 350.57,264.24 350.20,265.83 L 348.50 273.17 L 346.25 271.22 C345.01,270.14 343.99,268.64 343.98,267.88 C343.97,266.78 343.76,266.80 342.95,268.00 C341.70,269.83 342.47,264.37 344.71,255.50 C345.81,251.16 346.18,245.07 346.03,233.50 C345.79,214.41 345.70,212.83 344.77,211.38 C344.37,210.77 344.88,209.51 345.90,208.59 C347.62,207.04 347.89,207.03 349.38,208.52 C350.27,209.41 351.25,211.35 351.57,212.82 C351.88,214.29 352.56,216.53 353.07,217.80 C353.39,218.59 353.63,220.57 353.77,223.24 ZM 231.43 232.44 C230.84,233.51 229.76,234.58 229.04,234.82 C228.30,235.07 228.01,234.80 228.38,234.20 C228.74,233.62 228.53,232.83 227.91,232.44 C226.19,231.38 227.64,224.66 231.03,217.95 C234.92,210.23 237.34,203.20 238.36,196.22 C237.30,212.56 237.26,216.00 238.03,216.00 C238.46,216.00 238.56,216.97 238.25,218.16 C237.88,219.56 238.06,220.08 238.77,219.64 C238.97,219.52 239.28,219.03 239.65,218.27 C238.88,220.03 238.12,221.48 237.44,222.49 C236.10,224.47 235.00,226.72 235.00,227.49 C235.00,228.27 234.44,229.26 233.75,229.70 C233.06,230.14 232.02,231.37 231.43,232.44 ZM 298.42 345.06 C295.79,347.25 293.84,347.17 295.04,344.93 C296.32,342.53 299.70,340.70 301.18,341.61 C301.87,342.04 302.03,341.86 301.60,341.17 C301.21,340.54 302.05,338.79 303.45,337.27 C304.85,335.76 306.00,334.18 306.00,333.76 C306.00,333.34 306.67,333.00 307.50,333.00 C308.33,333.00 309.00,332.41 309.00,331.69 C309.00,330.46 309.68,329.65 315.06,324.50 C317.10,322.55 317.19,322.55 318.52,324.37 C319.70,325.97 319.65,326.60 318.20,328.85 C314.18,335.03 297.84,349.45 299.38,345.46 C299.96,343.95 299.83,343.90 298.42,345.06 ZM 178.55 255.81 C177.21,249.80 174.45,246.00 171.33,246.00 C171.00,246.00 170.74,246.06 170.55,246.23 C170.55,240.54 171.00,235.37 171.92,233.65 C173.45,230.79 175.33,230.29 177.38,232.21 C178.33,233.10 178.55,235.95 178.21,243.02 C178.01,247.27 178.16,252.38 178.55,255.81 ZM 201.75 280.84 C202.74,274.82 202.83,273.68 202.37,274.75 C201.78,276.13 198.00,276.49 198.00,275.17 C198.00,274.71 197.32,274.33 196.49,274.33 C195.25,274.33 194.23,276.45 193.55,280.10 C194.21,276.11 195.22,272.25 196.61,268.34 C198.21,263.87 199.12,263.17 203.01,263.40 C204.38,263.48 206.03,262.86 206.67,262.02 C208.96,259.04 208.97,261.76 206.68,266.09 C204.53,270.15 202.83,275.41 201.75,280.84 ZM 133.18 335.50 C131.71,334.18 130.25,332.82 128.80,331.42 C116.82,319.85 114.21,317.93 111.11,318.48 C108.85,318.88 108.06,318.28 105.53,314.22 C103.91,311.63 102.28,309.27 101.90,309.00 C101.29,308.55 98.04,302.05 95.09,295.73 C97.77,301.03 100.63,306.00 101.28,305.92 C104.83,305.47 106.72,306.43 110.75,310.75 C113.19,313.36 116.23,317.12 117.51,319.09 C119.45,322.11 126.53,329.38 133.18,335.50 ZM 259.04 368.15 C257.80,368.34 255.75,368.90 253.88,369.58 C251.47,370.45 246.36,371.70 242.51,372.36 C235.73,373.52 235.46,373.49 233.51,371.24 C232.25,369.79 231.39,369.28 229.84,369.36 C232.33,368.73 235.78,367.99 240.50,366.99 C244.63,366.12 250.56,366.41 257.50,367.83 ZM 244.02 168.93 C243.38,167.27 242.50,166.52 240.74,165.67 C239.00,164.83 237.28,164.33 236.92,164.55 C236.55,164.78 234.81,162.24 233.03,158.91 C231.26,155.58 229.63,153.04 229.41,153.26 C229.19,153.48 230.31,156.10 231.91,159.08 C232.46,160.11 233.10,161.57 233.75,163.24 C231.74,158.25 229.67,154.91 228.92,156.13 C228.52,156.78 228.42,157.92 228.70,158.66 C228.98,159.40 228.74,160.00 228.15,160.00 C226.65,160.00 227.42,153.44 229.13,151.73 C231.92,148.94 237.58,153.28 241.20,161.00 C242.28,163.30 243.23,166.00 244.02,168.93 ZM 243.48 283.96 C243.11,284.39 242.81,284.75 242.61,285.00 C241.97,285.83 237.62,290.17 232.94,294.65 C225.68,301.62 224.05,302.73 221.77,302.30 C218.34,301.64 215.03,305.12 210.84,313.75 C209.17,317.19 207.44,319.77 206.98,319.49 C206.97,319.48 206.96,319.48 206.95,319.47 C207.41,319.66 209.38,316.59 211.36,312.59 C216.26,302.67 222.75,295.00 228.96,291.81 C232.21,290.13 234.24,289.58 234.66,290.26 C235.07,290.92 234.82,291.01 234.00,290.50 C233.13,289.96 232.93,290.08 233.41,290.85 C234.49,292.61 236.51,291.35 243.48,283.96 ZM 210.09 342.03 C208.48,340.98 202.60,327.97 203.81,328.14 C204.19,328.19 204.73,328.14 205.00,328.01 C205.27,327.89 207.24,327.72 209.36,327.64 C213.16,327.50 213.26,327.39 215.49,321.22 C216.25,319.14 217.28,316.89 218.49,314.63 C215.15,321.25 212.22,330.30 211.41,337.00 C211.08,339.69 210.76,341.61 210.40,342.81 C210.41,342.46 210.31,342.17 210.09,342.03 ZM 176.00 368.28 C175.18,367.98 172.15,366.86 169.28,365.80 C164.61,364.08 164.18,363.68 165.22,362.02 C166.78,359.52 165.54,358.14 157.20,353.18 C154.51,351.58 151.92,349.94 149.40,348.23 C156.08,352.65 162.74,356.33 167.24,358.00 C173.20,360.22 176.26,363.16 175.28,365.72 C174.97,366.53 175.34,367.60 176.10,368.09 C176.43,368.29 176.65,368.45 176.74,368.58 C176.57,368.50 176.33,368.41 176.00,368.28 ZM 187.99 414.25 C188.00,416.86 187.89,418.96 187.75,418.92 C185.78,418.30 185.09,417.67 185.55,416.91 C185.86,416.41 185.61,416.00 185.00,416.00 C184.39,416.00 184.12,415.62 184.41,415.15 C184.70,414.68 183.83,413.25 182.47,411.97 C181.11,410.70 180.00,408.86 180.00,407.90 C180.00,406.24 180.22,406.24 183.99,407.82 C187.85,409.44 187.98,409.66 187.99,414.25 ZM 367.24 406.15 L 367.09 406.00 L 381.11 406.00 L 380.73 406.33 C380.85,406.02 380.21,406.00 378.69,406.00 C376.97,406.00 376.00,406.54 376.00,407.50 C376.00,409.30 376.87,409.36 379.17,407.67 L 378.45 408.29 L 375.78 410.58 L 375.85 422.08 C375.60,419.51 375.14,417.28 374.50,416.64 C373.67,415.82 373.00,414.09 373.00,412.79 C373.00,409.73 370.34,405.99 368.19,406.03 C367.68,406.04 367.36,406.07 367.24,406.15 ZM 85.47 221.68 C84.87,218.51 84.61,218.24 83.32,219.53 C82.52,220.34 81.44,221.00 80.93,221.00 C79.52,221.00 79.82,227.77 81.25,228.30 C81.94,228.56 83.32,227.99 84.32,227.03 C85.74,225.69 85.99,224.49 85.47,221.68 ZM 271.49 439.34 C270.56,437.92 270.29,437.06 270.90,437.44 C271.57,437.85 272.00,437.27 272.00,435.94 C272.00,434.07 271.61,433.86 269.25,434.44 C268.75,434.56 267.87,434.70 266.76,434.85 C268.09,434.36 268.89,433.57 270.14,432.17 C271.70,430.43 273.20,429.00 273.49,429.00 C273.77,429.00 274.00,432.38 274.00,436.50 C274.00,440.62 273.66,444.00 273.25,443.99 C272.84,443.99 271.76,442.68 270.85,441.09 C270.21,439.95 269.71,439.25 268.81,438.77 C269.71,439.25 270.21,439.95 270.85,441.07 C271.76,442.66 272.65,443.50 272.84,442.95 C273.03,442.39 272.42,440.77 271.49,439.34 ZM 176.34 465.58 L 178.70 463.98 C178.42,464.88 178.01,465.44 177.51,465.64 C176.68,465.95 176.22,466.55 176.49,466.98 C176.75,467.40 175.28,468.02 173.23,468.36 C167.79,469.26 159.22,469.14 158.83,468.15 C158.67,467.73 156.95,466.38 154.88,465.04 C157.85,466.60 161.35,467.28 165.91,467.36 C171.90,467.47 174.10,467.10 176.34,465.58 ZM 255.92 229.60 C256.67,230.30 256.97,233.03 256.74,237.10 C256.55,240.62 256.29,241.93 256.18,240.00 C256.07,238.07 255.70,234.70 255.36,232.50 C254.89,229.45 255.02,228.76 255.92,229.60 ZM 327.82 164.45 C321.26,153.71 313.61,143.98 305.32,135.84 C295.19,125.90 283.67,117.71 271.42,111.60 C279.40,115.45 286.97,120.05 293.59,125.16 C304.67,133.73 319.20,149.99 326.23,161.70 C326.74,162.56 327.28,163.48 327.82,164.45 ZM 344.50 203.46 C346.05,207.81 345.98,208.58 344.18,206.78 C343.53,206.13 343.02,204.23 343.04,202.55 C343.09,199.56 343.11,199.58 344.50,203.46 ZM 180.00 447.04 C180.00,448.85 180.13,450.15 180.28,449.92 C180.44,449.69 181.12,448.77 181.80,447.88 C182.79,446.58 182.73,446.02 181.51,445.01 C180.21,443.93 180.00,444.22 180.00,447.04 ZM 221.40 309.68 C224.59,304.72 228.35,300.13 231.69,297.40 C233.05,296.29 234.39,295.13 235.71,293.94 C235.46,294.18 235.22,294.42 234.97,294.66 C229.71,299.78 223.82,306.32 221.40,309.68 ZM 321.38 322.67 C322.31,323.19 322.60,324.03 322.12,324.81 C321.49,325.82 321.05,325.76 320.02,324.52 C318.44,322.62 319.27,321.49 321.38,322.67 ZM 212.29 331.00 C212.58,329.90 212.40,328.75 211.91,328.44 C211.41,328.13 211.00,329.03 211.00,330.44 C211.00,333.51 211.57,333.75 212.29,331.00 ZM 224.59 135.26 C224.91,135.58 225.01,136.67 224.81,137.67 C224.46,139.41 224.41,139.41 223.70,137.61 C222.94,135.69 223.51,134.18 224.59,135.26 ZM 118.70 332.73 C107.30,320.87 96.18,303.49 90.53,288.48 C95.94,302.84 107.68,321.16 118.70,332.73 ZM 110.98 321.48 C110.28,320.64 109.91,319.76 110.15,319.52 C110.38,319.28 111.12,319.97 111.80,321.05 C113.25,323.37 112.76,323.63 110.98,321.48 ZM 352.95 251.18 C352.89,251.57 352.83,251.99 352.76,252.42 C353.17,248.41 353.54,243.02 353.72,238.00 L 353.97 230.85 C353.99,238.01 353.64,246.33 352.95,251.18 ZM 176.63 368.86 C176.43,368.91 176.06,368.93 175.50,368.91 C172.76,368.84 168.13,367.05 159.20,362.60 C166.69,366.24 173.88,368.95 176.00,368.88 C176.26,368.88 176.47,368.87 176.63,368.86 ZM 171.01 255.99 C171.83,260.89 173.09,265.63 174.72,270.01 C173.54,267.19 172.56,264.41 171.96,262.00 C171.56,260.38 171.24,258.29 171.01,255.99 ZM 101.50 307.00 C101.16,307.55 101.36,308.00 101.94,308.00 C102.52,308.00 103.00,307.55 103.00,307.00 C103.00,306.45 102.80,306.00 102.56,306.00 C102.32,306.00 101.84,306.45 101.50,307.00 ZM 260.55 368.46 L 261.50 368.65 L 253.00 371.25 C252.48,371.41 251.93,371.57 251.35,371.73 C253.14,371.18 254.86,370.58 256.50,369.94 C257.60,369.50 259.17,368.92 260.00,368.65 C260.22,368.58 260.41,368.51 260.55,368.46 ZM 200.72 298.43 C200.05,293.93 200.10,290.68 200.87,286.12 C200.92,285.81 200.97,285.51 201.02,285.21 C200.39,289.92 200.25,294.55 200.72,298.43 ZM 164.33 470.60 C161.47,470.69 158.91,470.55 157.00,470.13 C154.73,469.63 152.59,468.96 150.58,468.13 C154.72,469.75 159.36,470.59 164.33,470.60 ZM 130.87 441.32 C131.52,444.98 132.80,449.58 134.16,452.67 C132.61,449.43 131.53,445.82 130.95,441.87 C130.92,441.68 130.90,441.50 130.87,441.32 ZM 236.88 172.88 C236.93,173.09 236.98,173.29 237.04,173.50 C238.32,178.67 238.84,181.55 238.86,185.66 C238.66,181.55 237.99,177.35 236.89,172.94 ZM 187.42 288.00 C187.31,288.22 187.19,288.38 187.06,288.46 C186.22,288.98 184.57,287.41 182.63,284.69 C182.77,284.86 182.91,285.04 183.05,285.21 C185.27,287.97 186.69,288.90 187.42,288.00 ZM 244.94 202.06 C246.20,196.64 246.74,191.83 246.61,186.71 C246.73,190.49 246.54,194.08 245.99,197.13 C245.71,198.70 245.35,200.37 244.94,202.06 ZM 65.03 433.39 C64.94,433.43 64.85,433.47 64.76,433.50 L 62.33 434.56 L 61.50 434.47 ZM 336.01 180.89 C338.12,185.62 339.67,189.63 339.95,191.38 C339.50,189.47 337.92,185.35 336.01,180.89 ZM 279.64 463.06 C277.97,464.37 276.39,465.36 274.62,466.09 C275.74,465.55 276.87,464.87 278.13,464.02 C278.68,463.66 279.18,463.34 279.64,463.06 ZM 192.92 285.15 C192.77,287.07 192.69,289.20 192.67,291.50 C192.65,295.63 192.85,299.19 193.54,303.06 C192.86,299.32 192.64,295.88 192.64,292.00 C192.64,289.64 192.73,287.37 192.92,285.15 ZM 224.70 371.24 C223.96,372.08 223.85,373.17 224.36,374.50 C223.79,373.01 223.57,372.07 224.70,371.24 ZM 185.52 277.31 C184.05,274.08 182.37,269.59 181.03,265.41 C182.43,269.60 184.18,274.27 185.52,277.31 ZM 65.90 434.96 C67.88,435.00 70.05,435.48 72.09,436.25 C70.43,435.66 68.58,435.26 66.50,435.03 ZM 188.00 284.64 C188.00,284.69 188.00,284.74 188.00,284.79 C187.97,283.19 187.53,281.17 186.99,280.24 L 186.98 280.22 C187.04,280.31 187.10,280.39 187.15,280.45 C187.62,280.97 188.00,282.86 188.00,284.64 ZM 335.97 469.10 C335.85,468.80 335.38,468.39 334.75,468.00 C335.45,468.05 336.00,468.48 336.00,469.00 C336.00,469.03 335.99,469.07 335.97,469.10 ZM 274.27 408.93 C272.00,408.27 268.86,408.05 263.87,408.01 C269.62,408.05 272.28,408.25 274.27,408.93 ZM 280.00 413.13 C279.92,413.04 279.83,412.93 279.74,412.82 C279.26,412.23 278.79,411.71 278.32,411.25 C279.32,412.03 280.00,412.74 280.00,413.08 C280.00,413.10 280.00,413.12 280.00,413.13 ZM 138.14 349.97 C133.92,346.81 129.66,343.16 124.73,338.57 C129.67,343.16 133.95,346.82 138.14,349.97 ZM 250.47 277.52 C252.36,274.88 254.00,272.26 255.33,269.75 C253.95,272.38 252.38,274.90 250.47,277.52 ZM 283.58 466.43 C283.91,464.66 283.92,463.37 283.64,462.59 C283.97,463.29 283.93,464.56 283.58,466.43 ZM 205.71 317.21 C204.92,315.28 203.96,312.32 203.09,309.13 C203.97,312.31 204.93,315.27 205.71,317.21 ZM 246.21 180.83 C246.00,178.96 245.72,177.01 245.36,174.95 C245.71,176.89 245.99,178.87 246.21,180.83 ZM 281.66 413.38 C281.51,413.70 281.34,413.87 281.14,413.90 C281.32,413.78 281.50,413.60 281.66,413.38 ZM 257.23 104.19 C257.15,104.17 257.08,104.14 257.00,104.12 C252.84,102.80 249.31,101.75 246.21,100.92 C249.30,101.75 252.84,102.80 257.00,104.12 C257.07,104.14 257.15,104.17 257.23,104.19 ZM 340.25 192.78 C340.22,192.76 340.18,192.71 340.16,192.63 C340.19,192.69 340.22,192.74 340.25,192.78 ZM 207.84 342.24 C207.79,342.15 207.75,342.05 207.71,341.95 C207.40,341.24 207.10,340.55 206.81,339.86 C207.10,340.54 207.39,341.22 207.70,341.92 C207.74,342.03 207.79,342.14 207.84,342.24 ZM 324.38 467.50 C324.33,467.52 324.28,467.55 324.23,467.57 C323.76,467.81 323.35,468.02 323.00,468.22 C323.35,468.02 323.76,467.81 324.23,467.57 C324.28,467.55 324.33,467.52 324.38,467.50 Z" fill="rgb(229,210,168)"/>
<path d="M 82.58 202.81 C84.51,192.49 86.83,184.00 88.13,184.00 C88.67,184.00 88.84,183.55 88.50,182.99 C88.15,182.44 90.83,175.96 94.44,168.59 C103.60,149.89 115.24,135.12 132.04,120.87 C150.08,105.57 180.30,92.98 199.81,92.65 L 208.50 92.50 L 208.81 95.19 C209.09,97.62 208.74,97.95 205.31,98.48 C193.21,100.37 188.55,101.39 179.83,104.05 C165.29,108.50 147.80,117.37 141.79,123.35 C140.05,125.08 138.30,126.40 137.89,126.27 C136.72,125.92 122.00,140.05 122.00,141.53 C122.00,142.26 120.71,143.90 119.13,145.18 C115.23,148.33 107.28,159.04 106.48,162.22 C106.12,163.64 105.03,165.66 104.05,166.71 C101.49,169.46 100.48,171.59 96.48,182.63 C91.53,196.32 88.59,210.19 87.62,223.85 C87.81,214.28 88.44,210.93 90.79,201.08 C94.16,186.94 94.49,182.75 91.43,192.96 C90.44,196.28 89.37,198.67 89.06,198.25 C88.75,197.84 87.49,197.45 86.25,197.38 C84.47,197.29 83.81,198.01 83.06,200.88 C82.90,201.52 82.73,202.17 82.58,202.81 ZM 298.42 345.06 C299.83,343.90 299.96,343.95 299.38,345.46 C299.01,346.41 299.65,346.32 300.89,345.56 C299.33,346.77 298.18,347.72 298.00,347.96 C296.55,349.81 283.20,357.72 274.00,362.17 C268.23,364.97 262.38,367.82 261.00,368.52 L 260.95 368.54 L 260.55 368.46 C261.19,368.21 260.98,368.13 259.88,368.08 C259.68,368.07 259.39,368.09 259.04,368.15 L 257.50 367.83 C250.56,366.41 244.63,366.12 240.50,366.99 C240.21,367.05 239.92,367.11 239.64,367.17 C242.20,366.51 245.64,365.51 249.14,364.41 C291.77,350.92 318.12,326.05 338.05,280.50 C338.95,278.44 341.06,270.82 343.27,261.66 C342.21,266.72 342.02,269.35 342.95,268.00 C343.76,266.80 343.97,266.78 343.98,267.88 C343.99,268.64 345.01,270.14 346.25,271.22 L 348.23 272.94 C348.11,273.16 348.00,273.33 347.88,273.45 C347.40,273.97 347.00,275.11 347.00,275.97 C347.00,279.96 335.17,306.66 331.71,310.48 C330.72,311.57 328.73,314.50 327.27,316.98 C325.82,319.47 324.15,322.03 323.57,322.68 C323.31,322.96 322.87,323.47 322.35,324.09 C322.36,323.55 322.03,323.03 321.38,322.67 C319.27,321.49 318.44,322.62 320.02,324.52 C320.50,325.10 320.85,325.43 321.16,325.50 C320.77,325.96 320.38,326.43 320.00,326.89 C319.15,327.92 318.31,328.91 317.47,329.88 C317.74,329.52 317.99,329.17 318.20,328.85 C319.65,326.60 319.70,325.97 318.52,324.37 C317.19,322.55 317.10,322.55 315.06,324.50 C309.68,329.65 309.00,330.46 309.00,331.69 C309.00,332.41 308.33,333.00 307.50,333.00 C306.67,333.00 306.00,333.34 306.00,333.76 C306.00,334.18 304.85,335.76 303.45,337.27 C302.05,338.79 301.21,340.54 301.60,341.17 C302.03,341.86 301.87,342.04 301.18,341.61 C299.70,340.70 296.32,342.53 295.04,344.93 C293.84,347.17 295.79,347.25 298.42,345.06 ZM 243.48 283.96 C236.51,291.35 234.49,292.61 233.41,290.85 C232.93,290.08 233.13,289.96 234.00,290.50 C234.82,291.01 235.07,290.92 234.66,290.26 C234.24,289.58 232.21,290.13 228.96,291.81 C222.80,294.98 216.37,302.54 211.48,312.34 C215.92,303.43 219.96,298.25 232.71,285.06 C244.92,272.44 248.10,267.83 252.16,256.83 C254.96,249.25 255.24,247.41 255.25,236.50 C255.25,234.60 255.25,232.98 255.22,231.55 C255.26,231.84 255.31,232.15 255.36,232.50 C255.70,234.70 256.07,238.07 256.18,240.00 C256.29,241.93 256.55,240.62 256.74,237.10 C256.97,233.03 256.67,230.30 255.92,229.60 C255.52,229.23 255.27,229.16 255.16,229.46 C254.95,224.20 254.25,221.77 252.18,216.20 C248.53,206.35 249.08,202.22 253.47,206.61 C258.83,211.97 263.16,225.98 263.27,238.32 C263.35,247.19 261.45,259.00 259.95,259.00 C259.55,259.00 258.91,260.24 258.53,261.75 C258.15,263.26 257.94,264.50 258.07,264.50 C258.19,264.50 257.38,266.30 256.25,268.50 C254.87,271.20 253.01,274.13 250.66,277.26 C252.48,274.74 253.99,272.29 255.33,269.75 C259.02,262.77 257.09,264.02 253.00,271.25 C251.07,274.66 248.21,278.81 246.64,280.47 C245.55,281.63 244.33,282.97 243.48,283.96 ZM 244.02 168.93 C243.23,166.00 242.28,163.30 241.20,161.00 C237.58,153.28 231.92,148.94 229.13,151.73 C227.42,153.44 226.65,160.00 228.15,160.00 C228.23,160.00 228.29,159.99 228.36,159.97 C226.83,162.30 225.00,166.02 225.00,167.30 C225.00,168.14 224.66,168.98 224.25,169.17 C223.84,169.35 221.74,172.20 219.59,175.50 C215.12,182.36 214.79,182.76 204.86,193.32 C200.81,197.62 197.12,202.24 196.67,203.57 C196.21,204.91 195.21,206.00 194.45,206.00 C193.69,206.00 192.59,206.90 192.00,208.00 C191.41,209.10 190.47,210.00 189.91,210.00 C189.34,210.00 189.17,209.54 189.52,208.97 C189.87,208.41 190.28,206.19 190.43,204.04 C190.71,200.14 190.71,200.14 188.89,202.32 C187.89,203.52 187.05,203.97 187.03,203.33 C187.00,202.01 191.21,197.00 201.60,186.01 C209.87,177.25 216.23,168.78 218.38,163.64 C219.21,161.64 220.26,160.00 220.70,160.00 C221.14,159.99 221.58,158.39 221.68,156.43 C221.78,154.47 222.40,152.23 223.05,151.45 C223.69,150.66 223.95,148.93 223.61,147.60 C223.23,146.07 223.47,145.01 224.25,144.75 C225.22,144.42 225.25,143.41 224.38,140.14 C224.24,139.61 224.12,139.02 224.02,138.41 C224.43,139.35 224.52,139.10 224.81,137.67 C225.01,136.67 224.91,135.58 224.59,135.26 C224.25,134.91 223.95,134.83 223.74,134.94 C223.74,134.10 223.80,133.34 223.92,132.76 L 224.57 129.57 L 227.17 133.03 C231.55,138.88 240.71,157.11 242.93,164.39 C243.50,166.27 244.01,168.28 244.45,170.35 C244.32,169.81 244.17,169.34 244.02,168.93 ZM 84.07 254.00 C85.24,254.00 86.01,253.31 86.02,252.25 C86.03,251.12 86.29,250.91 86.77,251.65 C87.07,252.13 87.34,247.79 87.47,241.21 C88.66,263.65 95.34,285.08 107.34,303.76 C109.90,307.75 112.00,311.41 112.00,311.89 C112.00,311.98 112.03,312.09 112.08,312.22 C111.63,311.70 111.18,311.21 110.75,310.75 C106.72,306.43 104.83,305.47 101.28,305.92 C100.63,306.00 97.77,301.03 95.09,295.73 C92.42,290.02 90.00,284.46 90.00,283.68 L 90.00 283.67 C90.00,283.62 90.00,283.57 90.00,283.52 L 89.99 283.51 C89.94,282.70 89.52,281.82 89.00,281.50 C87.62,280.65 87.67,280.89 90.53,288.48 C91.08,289.94 91.68,291.42 92.33,292.92 C91.45,291.07 90.76,289.53 90.37,288.50 C89.74,286.85 88.88,284.60 88.46,283.50 C88.03,282.40 87.75,281.16 87.84,280.75 C87.93,280.34 87.64,280.00 87.20,280.00 C86.76,280.00 86.35,278.37 86.29,276.37 C86.24,274.37 85.64,272.40 84.97,271.98 C84.29,271.56 84.05,270.72 84.43,270.11 C84.81,269.50 84.75,269.00 84.29,269.00 C83.84,269.00 83.42,267.15 83.36,264.89 C83.30,262.62 82.79,260.49 82.23,260.14 C81.83,259.89 81.41,258.10 81.02,255.41 C81.26,256.50 81.52,256.73 81.74,255.75 C81.96,254.79 83.01,254.00 84.07,254.00 ZM 305.22 124.27 C304.93,124.09 304.69,124.00 304.53,124.00 C303.86,124.00 302.50,123.11 301.51,122.01 C299.08,119.33 290.76,114.06 287.85,113.36 C286.56,113.05 283.48,112.67 281.00,112.52 C278.52,112.36 272.90,110.66 268.50,108.73 C268.18,108.60 267.86,108.46 267.54,108.32 C263.76,106.59 260.20,105.15 257.23,104.19 C257.15,104.17 257.07,104.14 257.00,104.12 C252.84,102.80 249.30,101.75 246.21,100.92 C245.17,100.64 244.17,100.38 243.22,100.15 C239.44,99.23 236.32,98.68 233.40,98.38 C229.80,98.01 226.21,97.07 225.43,96.28 C224.80,95.66 224.44,95.35 224.24,95.37 C224.52,92.23 227.20,91.54 235.85,92.37 C246.87,93.43 265.61,99.27 277.78,105.45 C286.54,109.90 297.41,117.51 305.22,124.27 ZM 231.43 232.44 C231.58,232.16 231.77,231.87 231.97,231.59 C231.76,232.38 230.50,234.19 229.00,235.84 C227.35,237.65 226.00,239.52 226.00,240.01 C226.00,240.50 224.20,242.35 222.00,244.12 C219.80,245.89 218.00,247.91 218.00,248.61 C218.00,249.31 217.08,250.53 215.96,251.32 C214.83,252.11 213.11,254.27 212.14,256.13 C211.16,257.98 209.00,261.98 207.35,265.00 C204.85,269.55 202.93,275.16 201.75,280.86 L 201.75 280.84 C202.83,275.41 204.53,270.15 206.68,266.09 C208.97,261.76 208.96,259.04 206.67,262.02 C206.03,262.86 204.38,263.48 203.01,263.40 C199.12,263.17 198.21,263.87 196.61,268.34 C196.08,269.84 195.60,271.33 195.17,272.83 C196.67,266.44 198.72,260.49 200.90,256.67 C204.80,249.86 206.29,248.61 209.52,249.42 C211.71,249.97 212.27,249.60 213.45,246.79 C214.38,244.57 214.51,242.96 213.86,241.73 C213.08,240.29 213.90,238.81 218.01,234.22 C228.50,222.49 235.09,210.98 237.71,199.85 C236.46,205.65 234.25,211.57 231.03,217.95 C227.64,224.66 226.19,231.38 227.91,232.44 C228.53,232.83 228.74,233.62 228.38,234.20 C228.01,234.80 228.30,235.07 229.04,234.82 C229.76,234.58 230.84,233.51 231.43,232.44 ZM 340.55 190.35 C340.31,189.39 339.43,186.84 338.30,183.84 C338.20,183.54 338.09,183.25 337.98,182.95 C336.29,178.35 333.80,172.39 332.45,169.71 C330.57,165.96 330.25,164.44 331.07,163.16 C332.00,161.73 332.06,161.78 331.52,163.50 C331.09,164.84 331.21,165.17 331.89,164.50 C333.71,162.70 331.41,156.42 326.17,148.85 C323.51,145.01 320.35,140.86 317.27,137.08 C317.55,137.30 317.80,137.46 318.00,137.53 C320.00,138.23 329.78,151.67 335.03,160.94 C339.09,168.09 343.84,180.11 344.43,184.71 C344.59,185.92 345.38,187.95 346.20,189.21 C349.48,194.28 352.04,205.43 353.19,218.16 C353.15,218.02 353.11,217.90 353.07,217.80 C352.56,216.53 351.88,214.29 351.57,212.82 C351.25,211.35 350.27,209.41 349.38,208.52 C347.89,207.03 347.62,207.04 345.90,208.59 C344.95,209.45 344.44,210.61 344.70,211.26 C344.42,210.88 344.39,210.14 344.66,209.46 C344.93,208.75 344.74,207.65 344.25,206.85 C345.98,208.56 346.03,207.76 344.50,203.46 C343.11,199.58 343.09,199.56 343.04,202.55 C343.03,203.61 343.23,204.76 343.54,205.63 C343.03,204.33 342.57,202.04 342.41,199.84 C342.21,196.98 341.63,194.39 341.13,194.07 C340.94,193.95 340.67,193.53 340.37,192.91 C340.44,192.97 340.52,193.00 340.61,193.00 C340.94,193.00 340.92,191.81 340.55,190.35 ZM 176.63 368.86 C177.08,368.82 177.12,368.75 176.74,368.58 C176.65,368.45 176.43,368.29 176.10,368.09 C175.34,367.60 174.97,366.53 175.28,365.72 C176.26,363.16 173.20,360.22 167.24,358.00 C162.74,356.33 156.08,352.65 149.40,348.23 C148.67,347.73 147.95,347.23 147.24,346.73 C163.06,357.35 182.05,364.92 199.32,367.37 C207.53,368.54 209.95,370.09 208.69,373.36 C208.22,374.58 206.85,374.98 203.28,374.91 C197.81,374.80 185.47,372.52 182.50,371.08 C181.54,370.61 178.61,369.70 175.62,368.92 C176.11,368.93 176.44,368.91 176.63,368.86 ZM 152.87 408.84 C154.31,407.70 155.43,407.00 156.54,406.51 C158.38,405.70 158.35,405.62 156.12,405.24 C149.63,404.12 138.55,412.22 139.17,417.63 C139.36,419.27 140.04,420.39 140.75,420.25 C142.18,419.96 142.33,420.92 141.15,422.78 C140.71,423.49 139.62,423.79 138.74,423.45 C137.83,423.11 135.85,423.79 134.16,425.04 C131.95,426.67 130.74,429.14 130.44,432.91 C130.80,422.49 135.03,414.55 143.11,409.11 C151.38,403.55 160.96,401.44 170.89,402.99 C175.08,403.64 180.52,405.15 183.00,406.34 C185.80,407.68 186.86,408.24 187.34,409.79 C186.80,409.04 185.81,408.59 183.99,407.82 C180.22,406.24 180.00,406.24 180.00,407.90 C180.00,408.86 181.11,410.70 182.47,411.97 C182.80,412.28 183.10,412.60 183.36,412.91 C181.74,411.08 178.64,408.75 176.00,407.65 C170.55,405.38 163.81,404.71 159.13,405.97 C156.86,406.58 154.77,407.55 152.87,408.84 ZM 178.15 249.39 C178.10,247.26 178.12,245.04 178.21,243.02 C178.55,235.95 178.33,233.10 177.38,232.21 C175.33,230.29 173.45,230.79 171.92,233.65 C171.35,234.71 170.97,237.07 170.75,240.05 C170.93,236.11 171.30,232.59 171.87,230.32 C172.58,227.47 174.48,222.75 176.09,219.82 C177.70,216.89 179.29,213.71 179.63,212.75 C180.37,210.62 180.73,210.58 182.64,212.50 C183.74,213.60 184.64,213.73 186.00,213.00 C188.35,211.74 189.00,211.74 189.00,213.00 C189.00,213.55 188.07,214.00 186.94,214.00 C185.81,214.00 185.13,214.41 185.44,214.90 C185.74,215.40 184.39,219.18 182.43,223.30 C179.24,230.03 178.81,231.92 178.30,241.65 C178.16,244.34 178.11,246.98 178.15,249.39 ZM 250.22 451.76 C250.19,453.19 250.16,454.47 250.13,455.63 C249.88,451.45 249.39,446.68 248.89,443.82 C247.87,438.09 247.37,437.06 245.32,436.54 C242.38,435.81 240.11,431.49 241.78,429.82 C242.61,428.99 243.27,428.98 244.24,429.79 C247.61,432.58 250.00,427.10 250.00,416.57 L 250.00 410.72 L 250.22 420.75 L 250.50 433.50 L 258.63 433.79 C266.09,434.05 267.00,433.87 269.77,431.54 C271.43,430.14 273.06,429.00 273.39,429.00 C273.41,429.00 273.42,429.00 273.43,429.01 C273.04,429.16 271.61,430.52 270.14,432.17 C268.89,433.57 268.09,434.36 266.76,434.85 C264.51,435.15 261.29,435.47 258.25,435.68 C253.71,435.99 250.00,436.60 250.00,437.03 C250.00,437.46 250.90,437.58 252.00,437.29 C253.10,437.00 257.42,437.09 261.60,437.48 C263.60,437.66 265.08,437.82 266.23,438.01 L 259.77 438.21 L 250.50 438.50 ZM 372.53 448.75 C372.54,450.65 372.51,451.77 372.46,451.83 C371.11,453.38 364.35,446.06 355.50,433.46 C353.30,430.33 347.90,424.11 343.50,419.63 C339.10,415.15 334.72,410.29 333.78,408.82 C332.19,406.36 330.24,405.19 328.00,405.34 C329.04,405.19 330.24,405.09 331.31,405.07 L 331.34 405.07 C332.33,405.05 333.10,405.04 333.82,405.21 C336.17,405.76 338.06,408.27 346.17,419.00 C353.13,428.20 361.72,439.30 366.50,445.26 C368.15,447.32 370.35,449.00 371.39,449.00 C371.91,449.00 372.28,448.95 372.53,448.75 ZM 86.34 423.55 C86.84,422.47 87.00,421.31 87.00,419.69 C87.00,417.48 86.72,415.95 86.37,416.29 C85.63,417.04 81.50,411.67 79.76,407.71 C78.31,404.41 75.53,403.53 69.17,404.34 C59.39,405.58 56.20,407.25 53.58,412.50 C51.85,415.99 52.69,416.62 55.45,414.49 C54.29,415.41 53.41,415.94 53.13,415.84 C51.20,415.13 55.48,408.13 59.39,405.60 C62.64,403.50 64.61,403.00 69.73,403.00 C77.63,403.00 82.36,404.92 85.00,409.19 C88.34,414.61 88.80,419.30 86.34,423.55 ZM 67.57 467.00 C75.05,467.00 80.64,461.93 82.35,455.57 C81.98,463.00 81.79,464.12 81.18,463.52 C80.92,463.25 79.76,464.09 78.60,465.39 C76.21,468.06 71.16,469.31 66.35,468.41 C63.13,467.80 60.71,465.92 56.28,460.58 C54.92,458.93 54.18,458.36 53.22,458.52 C54.94,457.91 55.80,458.59 59.31,462.35 C63.04,466.36 64.18,467.00 67.57,467.00 ZM 190.54 441.85 C191.01,439.97 190.31,439.76 188.21,440.89 C187.14,441.46 185.26,441.74 184.04,441.51 C182.30,441.17 181.95,441.44 182.45,442.73 C182.98,444.11 182.74,444.08 181.00,442.50 C178.99,440.68 178.94,440.68 179.63,442.47 C180.03,443.53 179.94,444.08 179.42,443.76 C178.91,443.44 178.67,446.84 178.80,452.22 C178.52,444.22 178.15,442.58 176.57,441.43 C175.51,440.65 174.86,439.80 175.13,439.53 C175.91,438.75 185.21,438.20 188.73,438.73 C191.69,439.18 191.86,439.39 190.74,441.36 C190.68,441.48 190.61,441.64 190.54,441.85 ZM 259.01 405.79 L 282.50 406.50 L 263.50 405.96 C248.27,405.53 244.06,405.70 242.26,406.82 C240.24,408.08 240.05,408.36 239.83,430.28 C239.97,408.00 239.44,407.00 235.37,407.00 C234.24,407.00 233.95,406.65 234.56,406.04 C235.17,405.43 244.30,405.34 259.01,405.79 ZM 188.85 457.86 C188.81,455.57 188.42,453.98 187.70,453.14 C185.64,450.75 185.02,447.23 186.45,446.05 C187.13,445.48 187.97,445.30 188.31,445.65 C188.66,445.99 189.42,445.03 190.00,443.50 C190.15,443.10 190.28,442.74 190.38,442.41 C189.82,444.64 189.25,449.49 189.02,454.42 ZM 264.49 467.91 C262.91,467.92 261.10,467.88 259.00,467.80 L 250.50 467.50 L 250.38 462.95 C250.59,463.99 250.93,464.74 251.47,465.30 C252.94,466.85 255.91,466.97 261.75,467.54 C263.50,467.72 265.06,467.80 266.50,467.79 C265.86,467.84 265.19,467.88 264.49,467.91 ZM 180.00 447.04 C180.00,444.22 180.21,443.93 181.51,445.01 C182.73,446.02 182.79,446.58 181.80,447.88 C181.12,448.77 180.44,449.69 180.28,449.92 C180.13,450.15 180.00,448.85 180.00,447.04 ZM 232.44 160.25 C231.63,158.83 230.85,158.00 230.16,158.00 C229.88,158.00 229.39,158.51 228.82,159.31 C228.83,159.11 228.79,158.89 228.70,158.66 C228.42,157.92 228.52,156.78 228.92,156.13 C229.51,155.18 230.90,157.02 232.44,160.25 ZM 80.08 246.62 C79.48,239.11 79.16,230.28 79.53,225.21 C79.68,223.18 79.88,221.02 80.14,218.79 C79.85,222.60 79.70,226.76 79.66,231.50 C79.62,236.68 79.80,242.14 80.08,246.62 ZM 148.67 412.52 L 148.78 412.41 C144.57,417.09 141.89,423.72 141.18,431.33 C141.82,423.62 144.36,416.53 148.67,412.52 ZM 372.00 422.49 C372.07,424.86 372.15,427.68 372.23,431.06 C372.34,435.34 372.42,439.33 372.47,442.66 C372.20,439.03 372.00,431.95 372.00,425.31 C372.00,424.30 372.00,423.36 372.00,422.49 ZM 345.93 245.41 C345.74,249.86 345.35,252.97 344.71,255.50 C344.45,256.55 344.21,257.55 343.98,258.49 C344.67,254.97 345.40,249.92 345.93,245.41 ZM 336.01 180.89 C337.92,185.35 339.50,189.47 339.95,191.38 C339.98,191.57 340.00,191.74 340.00,191.87 C340.00,191.96 340.01,192.04 340.01,192.12 C339.65,191.24 339.26,190.14 338.94,189.00 C338.23,186.52 337.36,184.05 337.00,183.50 C336.65,182.96 335.59,180.44 334.62,177.84 C335.10,178.87 335.57,179.90 336.01,180.89 ZM 101.50 307.00 C101.84,306.45 102.32,306.00 102.56,306.00 C102.80,306.00 103.00,306.45 103.00,307.00 C103.00,307.55 102.52,308.00 101.94,308.00 C101.36,308.00 101.16,307.55 101.50,307.00 ZM 239.67 448.07 L 239.51 465.02 C239.25,465.51 238.93,465.97 238.60,466.38 C239.35,464.82 239.52,460.87 239.67,448.07 ZM 100.50 308.63 C103.34,313.33 106.47,317.94 109.76,322.24 C107.54,319.49 105.57,316.89 104.29,315.00 C103.37,313.64 102.01,311.34 100.50,308.63 ZM 228.68 369.51 C231.08,368.69 233.88,368.03 235.64,368.02 C235.66,368.02 235.68,368.01 235.71,368.01 C233.33,368.53 231.40,368.97 229.84,369.36 C229.50,369.38 229.11,369.43 228.68,369.51 ZM 348.99 271.07 L 350.20 265.83 C350.57,264.24 350.99,262.25 351.39,260.17 C351.40,260.13 351.41,260.10 351.42,260.07 C350.65,264.65 349.79,268.62 348.99,271.07 ZM 236.88 172.88 L 236.89 172.94 C237.95,177.19 238.61,181.24 238.84,185.20 C238.45,180.45 237.43,175.03 236.15,170.29 C236.42,171.17 236.66,172.04 236.88,172.88 ZM 258.77 369.49 C256.11,370.51 252.37,371.61 248.36,372.58 C249.38,372.31 250.37,372.03 251.35,371.73 C251.93,371.57 252.48,371.41 253.00,371.25 ZM 128.82 331.38 C123.68,326.41 119.03,321.45 117.51,319.09 C116.75,317.93 115.39,316.15 113.90,314.35 C114.85,315.26 116.41,317.27 117.55,319.08 C119.03,321.42 123.67,326.39 128.82,331.38 ZM 322.95 156.95 C317.69,149.42 311.44,141.85 305.32,135.84 C311.64,142.04 317.58,149.16 322.95,156.95 ZM 50.35 460.27 C49.75,461.21 50.45,462.38 52.55,464.88 C51.03,463.43 50.00,461.95 50.00,460.90 C50.00,460.73 50.13,460.51 50.35,460.27 ZM 345.13 212.10 C345.52,213.14 345.70,215.03 345.83,220.77 C345.69,216.79 345.42,213.47 345.13,212.10 ZM 76.29 438.40 C77.91,439.56 79.26,441.01 80.40,442.78 C81.46,444.43 82.05,445.61 82.33,447.23 C81.91,445.70 81.25,444.19 80.33,442.73 C79.23,440.99 77.89,439.55 76.29,438.40 ZM 144.05 451.77 C144.82,453.54 145.74,455.26 146.76,456.85 C146.30,456.16 145.86,455.46 145.45,454.76 C144.93,453.80 144.47,452.80 144.05,451.77 ZM 176.34 465.58 C175.08,466.43 173.83,466.92 171.92,467.17 C173.71,466.85 175.25,466.32 176.34,465.58 ZM 326.73 405.56 C326.52,405.62 326.31,405.69 326.10,405.77 C324.02,406.54 323.96,406.64 325.57,408.50 C323.95,406.63 324.00,406.52 325.69,405.85 C325.95,405.75 326.31,405.65 326.73,405.56 ZM 224.51 97.99 C224.87,98.31 225.48,98.56 226.49,98.80 C225.56,98.61 224.94,98.46 224.79,98.37 C224.69,98.31 224.59,98.17 224.51,97.99 ZM 228.38 375.83 C227.32,375.94 226.58,376.00 226.31,376.00 C226.02,376.00 225.73,375.92 225.48,375.77 C226.03,375.93 226.90,375.95 228.38,375.83 ZM 56.98 468.12 C58.13,468.70 59.40,469.20 60.72,469.63 C60.42,469.54 60.11,469.45 59.80,469.35 C58.89,469.07 57.93,468.64 56.98,468.12 ZM 77.18 469.37 C74.78,470.04 72.72,470.48 70.78,470.68 C72.75,470.42 75.16,469.94 77.18,469.37 ZM 313.11 132.14 C312.10,130.98 311.12,129.89 310.22,128.92 C311.34,130.07 312.32,131.15 313.11,132.14 ZM 159.52 466.70 C157.82,466.32 156.29,465.78 154.88,465.04 C154.80,464.99 154.73,464.94 154.65,464.89 C156.01,465.65 157.69,466.26 159.52,466.70 ZM 171.50 259.76 C171.64,260.57 171.79,261.33 171.96,262.00 C172.56,264.41 173.54,267.19 174.72,270.01 L 174.74 270.06 C173.55,267.22 172.55,264.43 171.95,262.00 C171.78,261.34 171.64,260.59 171.50,259.76 ZM 235.00 227.58 C235.00,227.87 234.91,228.17 234.77,228.46 C234.91,228.13 235.00,227.80 235.00,227.49 C235.00,226.72 236.10,224.47 237.44,222.49 C236.10,224.47 235.00,226.76 235.00,227.58 ZM 124.42 338.28 C124.53,338.38 124.63,338.47 124.73,338.57 C129.66,343.16 133.91,346.81 138.13,349.97 C133.82,346.74 129.49,343.02 124.42,338.28 ZM 232.08 99.71 C232.68,99.79 233.33,99.88 234.03,99.97 C235.54,100.17 237.06,100.41 238.59,100.69 C237.07,100.42 235.55,100.19 234.03,99.98 C233.37,99.89 232.71,99.80 232.08,99.71 ZM 282.07 117.55 C278.43,115.29 274.70,113.22 270.89,111.35 C271.07,111.43 271.25,111.52 271.42,111.60 C275.04,113.41 278.60,115.39 282.07,117.55 ZM 283.58 466.43 C283.88,464.83 283.92,463.63 283.72,462.81 C283.94,463.58 283.89,464.78 283.58,466.43 ZM 239.71 218.14 C238.92,219.95 238.15,221.45 237.44,222.49 C238.12,221.48 238.88,220.03 239.65,218.27 C239.67,218.23 239.69,218.19 239.71,218.14 ZM 155.64 469.81 C153.79,469.33 152.03,468.74 150.37,468.04 C150.44,468.07 150.51,468.10 150.58,468.13 C152.19,468.79 153.87,469.35 155.64,469.81 ZM 180.98 265.26 C181.67,267.32 182.44,269.51 183.21,271.57 C182.46,269.56 181.70,267.43 181.03,265.41 C181.01,265.36 181.00,265.31 180.98,265.26 ZM 279.64 463.06 C279.56,463.11 279.48,463.16 279.40,463.21 C279.56,463.10 279.71,462.99 279.87,462.89 C279.82,462.93 279.78,462.96 279.73,463.00 C279.70,463.02 279.67,463.04 279.64,463.06 ZM 283.52 462.33 C283.61,462.47 283.67,462.63 283.72,462.81 C283.69,462.75 283.66,462.66 283.64,462.59 C283.60,462.49 283.56,462.41 283.52,462.33 Z" fill="rgb(243,232,203)"/>
<path d="M 0.00 288.50 L 0.00 0.00 L 216.50 0.00 L 433.00 0.00 L 433.00 288.50 L 433.00 577.00 L 216.50 577.00 L 0.00 577.00 L 0.00 288.50 ZM 77.18 469.37 C80.38,468.47 83.00,467.35 83.00,466.87 C83.00,466.39 83.44,466.00 83.99,466.00 C85.33,466.00 89.00,462.78 89.00,461.61 C89.00,461.08 89.77,459.80 90.72,458.76 C91.91,457.44 92.44,455.10 92.47,451.02 C92.49,446.10 92.02,444.50 89.46,440.84 C87.78,438.45 84.99,435.60 83.25,434.50 C81.50,433.40 80.06,432.05 80.05,431.50 C80.03,430.95 81.58,428.98 83.49,427.13 C88.82,421.95 89.31,416.17 85.00,409.19 C82.36,404.92 77.63,403.00 69.73,403.00 C64.61,403.00 62.64,403.50 59.39,405.60 C55.48,408.13 51.20,415.13 53.13,415.84 C53.64,416.03 56.18,414.09 58.78,411.52 C63.37,406.98 63.63,406.87 68.40,407.40 C73.15,407.92 78.55,411.30 77.46,413.06 C77.20,413.48 77.38,413.98 77.86,414.16 C78.34,414.35 78.42,416.87 78.04,419.77 C77.18,426.37 73.14,430.91 66.27,433.01 L 61.50 434.47 L 66.50 435.03 C73.07,435.76 77.47,438.22 80.33,442.73 C87.04,453.33 79.85,466.99 67.57,467.00 C64.18,467.00 63.04,466.36 59.31,462.35 C55.34,458.09 54.76,457.79 52.49,458.82 C51.12,459.45 50.00,460.38 50.00,460.90 C50.00,463.31 55.46,468.02 59.80,469.35 C66.16,471.30 70.29,471.30 77.18,469.37 ZM 181.50 467.69 L 188.50 465.34 L 189.02 454.42 C189.30,448.41 190.08,442.54 190.74,441.36 C191.86,439.39 191.69,439.18 188.73,438.73 C185.21,438.20 175.91,438.75 175.13,439.53 C174.86,439.80 175.51,440.65 176.57,441.43 C178.22,442.63 178.55,444.35 178.84,453.25 L 179.17 463.66 L 176.34 465.58 C171.83,468.63 159.68,468.08 154.13,464.58 C148.56,461.06 143.49,452.97 141.95,445.13 C138.24,426.29 145.55,409.62 159.13,405.97 C163.81,404.71 170.55,405.38 176.00,407.65 C180.05,409.33 185.17,413.91 184.41,415.15 C184.12,415.62 184.39,416.00 185.00,416.00 C185.61,416.00 185.87,416.40 185.56,416.90 C185.26,417.39 185.71,418.06 186.56,418.38 C187.85,418.88 188.05,418.13 187.80,413.74 C187.51,408.61 187.40,408.45 183.00,406.34 C180.52,405.15 175.08,403.64 170.89,402.99 C160.96,401.44 151.38,403.55 143.11,409.11 C132.91,415.97 128.85,426.82 130.95,441.62 C133.08,456.72 142.41,466.92 157.00,470.13 C162.60,471.36 173.93,470.23 181.50,467.69 ZM 375.43 468.41 C375.79,466.98 376.02,453.39 375.93,438.20 L 375.78 410.58 L 378.45 408.29 L 381.11 406.00 L 374.10 406.00 L 367.09 406.00 L 369.55 408.45 C371.92,410.83 372.00,411.35 372.00,425.31 C372.00,433.24 372.29,441.81 372.64,444.36 C373.20,448.46 373.05,449.00 371.39,449.00 C370.35,449.00 368.15,447.32 366.50,445.26 C361.72,439.30 353.13,428.20 346.17,419.00 C335.56,404.96 335.59,404.99 331.31,405.07 C329.22,405.11 326.69,405.46 325.69,405.85 C323.95,406.54 323.95,406.64 325.69,408.65 C327.37,410.58 327.46,412.74 327.00,438.58 C326.50,466.31 326.49,466.45 324.23,467.57 C320.05,469.66 320.63,470.00 328.33,470.00 C332.78,470.00 336.00,469.58 336.00,469.00 C336.00,468.45 335.38,468.00 334.62,468.00 C331.28,468.00 330.96,465.51 331.23,441.38 L 331.50 417.50 L 336.25 423.50 C343.69,432.90 360.91,455.03 367.30,463.40 C370.50,467.58 373.49,471.00 373.95,471.00 C374.41,471.00 375.08,469.83 375.43,468.41 ZM 283.58 466.43 C284.52,461.43 283.07,460.50 279.04,463.47 C273.81,467.33 269.61,468.32 261.75,467.54 C249.28,466.31 249.90,467.16 250.22,451.76 L 250.50 438.50 L 259.77 438.21 L 269.05 437.92 L 270.77 440.96 C271.72,442.62 272.84,443.99 273.25,443.99 C273.66,444.00 274.00,440.62 274.00,436.50 C274.00,432.38 273.73,429.00 273.39,429.00 C273.06,429.00 271.43,430.14 269.77,431.54 C267.00,433.87 266.09,434.05 258.63,433.79 L 250.50 433.50 L 250.22 420.75 L 249.94 408.00 L 261.75 408.00 C273.85,408.00 276.38,408.68 279.74,412.82 C281.34,414.80 281.89,414.17 282.23,409.94 L 282.50 406.50 L 259.01 405.79 C244.30,405.34 235.17,405.43 234.56,406.04 C233.95,406.65 234.24,407.00 235.37,407.00 C239.88,407.00 240.05,408.22 239.77,438.17 C239.50,466.43 239.50,466.44 237.23,467.57 C235.99,468.19 234.67,468.99 234.32,469.35 C233.96,469.71 244.75,470.00 258.29,470.00 L 282.91 470.00 L 283.58 466.43 ZM 236.09 374.92 C244.74,373.80 256.59,370.76 261.00,368.52 C262.38,367.82 268.23,364.97 274.00,362.17 C283.20,357.72 296.55,349.81 298.00,347.96 C298.27,347.60 300.75,345.62 303.50,343.56 C308.14,340.07 313.94,334.21 320.00,326.89 C321.38,325.23 322.98,323.34 323.57,322.68 C324.15,322.03 325.82,319.47 327.27,316.98 C328.73,314.50 330.72,311.57 331.71,310.48 C335.17,306.66 347.00,279.96 347.00,275.97 C347.00,275.11 347.40,273.97 347.88,273.45 C349.96,271.22 353.22,251.94 353.73,238.85 C354.52,218.81 351.21,196.95 346.20,189.21 C345.38,187.95 344.59,185.92 344.43,184.71 C343.84,180.11 339.09,168.09 335.03,160.94 C329.78,151.67 320.00,138.23 318.00,137.53 C317.17,137.24 315.42,135.41 314.10,133.47 C309.11,126.13 291.03,112.18 277.78,105.45 C265.61,99.27 246.87,93.43 235.85,92.37 C227.16,91.54 224.50,92.23 224.24,95.41 C224.12,96.78 224.37,98.11 224.79,98.37 C225.21,98.63 229.37,99.36 234.03,99.98 C260.00,103.47 285.30,116.19 305.32,135.84 C317.53,147.82 330.26,166.03 334.56,177.66 C335.54,180.32 336.64,182.95 337.00,183.50 C337.36,184.05 338.23,186.52 338.94,189.00 C339.64,191.48 340.63,193.76 341.13,194.07 C341.63,194.39 342.21,196.98 342.41,199.84 C342.62,202.70 343.33,205.69 344.00,206.50 C344.67,207.31 344.97,208.64 344.66,209.46 C344.34,210.27 344.44,211.16 344.88,211.43 C345.32,211.70 345.77,216.97 345.90,223.15 C346.02,229.32 346.31,234.69 346.54,235.07 C347.22,236.16 345.13,253.87 343.55,260.50 C341.24,270.17 338.99,278.35 338.05,280.50 C318.12,326.05 291.77,350.92 249.14,364.41 C242.89,366.38 236.82,368.01 235.64,368.02 C232.18,368.04 224.64,370.59 224.21,371.88 C223.60,373.70 224.78,376.00 226.31,376.00 C227.06,376.00 231.47,375.51 236.09,374.92 ZM 208.69 373.36 C209.95,370.09 207.53,368.54 199.32,367.37 C180.10,364.64 158.76,355.58 142.01,343.03 C134.61,337.48 120.36,323.53 117.55,319.08 C116.30,317.09 114.54,314.86 113.64,314.11 C112.74,313.37 112.00,312.36 112.00,311.89 C112.00,311.41 109.90,307.75 107.34,303.76 C85.09,269.14 81.14,225.02 96.48,182.63 C100.48,171.59 101.49,169.46 104.05,166.71 C105.03,165.66 106.12,163.64 106.48,162.22 C107.28,159.04 115.23,148.33 119.13,145.18 C120.71,143.90 122.00,142.26 122.00,141.53 C122.00,140.05 136.72,125.92 137.89,126.27 C138.30,126.40 140.05,125.08 141.79,123.35 C147.80,117.37 165.29,108.50 179.83,104.05 C188.55,101.39 193.21,100.37 205.31,98.48 C208.74,97.95 209.09,97.62 208.81,95.19 L 208.50 92.50 L 199.81 92.65 C180.30,92.98 150.08,105.57 132.04,120.87 C115.24,135.12 103.60,149.89 94.44,168.59 C90.83,175.96 88.15,182.44 88.50,182.99 C88.84,183.55 88.67,184.00 88.13,184.00 C85.90,184.00 80.70,208.90 79.53,225.21 C78.82,235.08 80.68,259.17 82.23,260.14 C82.79,260.49 83.30,262.62 83.36,264.89 C83.42,267.15 83.84,269.00 84.29,269.00 C84.75,269.00 84.81,269.50 84.43,270.11 C84.05,270.72 84.29,271.56 84.97,271.98 C85.64,272.40 86.24,274.37 86.29,276.37 C86.35,278.37 86.76,280.00 87.20,280.00 C87.64,280.00 87.93,280.34 87.84,280.75 C87.75,281.16 88.03,282.40 88.46,283.50 C88.88,284.60 89.74,286.85 90.37,288.50 C92.23,293.43 101.02,310.16 104.29,315.00 C107.90,320.35 117.08,331.29 121.48,335.50 C135.59,348.99 143.62,354.77 158.84,362.42 C163.93,364.97 170.88,367.75 174.29,368.58 C177.71,369.42 181.40,370.54 182.50,371.08 C185.47,372.52 197.81,374.80 203.28,374.91 C206.85,374.98 208.22,374.58 208.69,373.36 ZM 211.41 337.00 C212.42,328.64 216.73,316.62 221.02,310.23 C223.13,307.08 229.46,300.02 235.08,294.55 C245.49,284.41 252.59,275.68 256.25,268.50 C257.38,266.30 258.19,264.50 258.07,264.50 C257.94,264.50 258.15,263.26 258.53,261.75 C258.91,260.24 259.55,259.00 259.95,259.00 C261.45,259.00 263.35,247.19 263.27,238.32 C263.16,225.98 258.83,211.97 253.47,206.61 C249.08,202.22 248.53,206.35 252.18,216.20 C255.00,223.78 255.26,225.54 255.25,236.50 C255.24,247.41 254.96,249.25 252.16,256.83 C248.10,267.83 244.92,272.44 232.71,285.06 C219.81,298.41 215.83,303.55 211.33,312.65 C209.34,316.66 207.37,319.73 206.94,319.46 C205.75,318.73 202.24,307.31 200.95,300.00 C199.18,289.87 201.90,274.94 207.35,265.00 C209.00,261.98 211.16,257.98 212.14,256.13 C213.11,254.27 214.83,252.11 215.96,251.32 C217.08,250.53 218.00,249.31 218.00,248.61 C218.00,247.91 219.80,245.89 222.00,244.12 C224.20,242.35 226.00,240.50 226.00,240.01 C226.00,239.52 227.35,237.65 229.00,235.84 C230.65,234.03 232.00,232.03 232.00,231.38 C232.00,230.74 232.68,229.95 233.50,229.64 C234.32,229.32 235.00,228.39 235.00,227.58 C235.00,226.76 236.10,224.47 237.44,222.49 C240.35,218.20 244.41,206.07 246.00,196.92 C247.40,188.89 246.05,174.67 242.93,164.39 C240.71,157.11 231.55,138.88 227.17,133.03 L 224.57 129.57 L 223.92 132.76 C223.56,134.51 223.77,137.83 224.38,140.14 C225.25,143.41 225.22,144.42 224.25,144.75 C223.47,145.01 223.23,146.07 223.61,147.60 C223.95,148.93 223.69,150.66 223.05,151.45 C222.40,152.23 221.78,154.47 221.68,156.43 C221.58,158.39 221.14,159.99 220.70,160.00 C220.26,160.00 219.21,161.64 218.38,163.64 C216.23,168.78 209.87,177.25 201.60,186.01 C191.21,197.00 187.00,202.01 187.03,203.33 C187.05,203.97 187.89,203.52 188.89,202.32 C190.71,200.14 190.71,200.14 190.43,204.04 C190.28,206.19 189.87,208.41 189.52,208.97 C189.17,209.54 189.34,210.00 189.91,210.00 C190.47,210.00 191.41,209.10 192.00,208.00 C192.59,206.90 193.69,206.00 194.45,206.00 C195.21,206.00 196.21,204.91 196.67,203.57 C197.12,202.24 200.81,197.62 204.86,193.32 C214.79,182.76 215.12,182.36 219.59,175.50 C221.74,172.20 223.84,169.35 224.25,169.17 C224.66,168.98 225.00,168.14 225.00,167.30 C225.00,165.38 229.09,158.00 230.16,158.00 C233.49,158.00 239.00,177.31 239.00,188.98 C239.00,203.43 231.95,218.63 218.01,234.22 C213.90,238.81 213.08,240.29 213.86,241.73 C214.51,242.96 214.38,244.57 213.45,246.79 C212.27,249.60 211.71,249.97 209.52,249.42 C206.29,248.61 204.80,249.86 200.90,256.67 C196.55,264.28 192.78,280.27 192.69,291.50 C192.59,304.61 194.76,311.90 207.71,341.95 C209.52,346.17 210.44,344.93 211.41,337.00 ZM 188.00 284.64 C188.00,282.86 187.62,280.97 187.15,280.45 C185.63,278.74 180.06,263.63 178.88,258.00 C178.17,254.63 177.95,248.30 178.30,241.65 C178.81,231.92 179.24,230.03 182.43,223.30 C184.39,219.18 185.74,215.40 185.44,214.90 C185.13,214.41 185.81,214.00 186.94,214.00 C188.07,214.00 189.00,213.55 189.00,213.00 C189.00,211.74 188.35,211.74 186.00,213.00 C184.64,213.73 183.74,213.60 182.64,212.50 C180.73,210.58 180.37,210.62 179.63,212.75 C179.29,213.71 177.70,216.89 176.09,219.82 C174.48,222.75 172.58,227.47 171.87,230.32 C170.17,237.12 170.22,255.05 171.95,262.00 C174.59,272.60 184.54,290.02 187.06,288.46 C187.58,288.14 188.00,286.42 188.00,284.64 Z" fill="rgb(254,254,254)"/>
</g>
</svg>